<svg xmlns="http://www.w3.org/2000/svg" viewBox="0 0 64 64" width="64" height="64">
  <!-- 黑色头部 + 半立耳 -->
  <path d="M10 27
           Q4 11 13 7
           Q15 4 19 9
           L24 20
           Q28 18 32 18
           Q36 18 40 20
           L45 9
           Q49 4 51 7
           Q60 11 54 27
           Q58 36 54 44
           Q48 56 32 57
           Q16 56 10 44
           Q6 36 10 27 Z"
        fill="#111111"/>

  <!-- 中央白色 blaze -->
  <path d="M28 18
           L27 28
           Q22 33 24 43
           Q28 51 32 52
           Q36 51 40 43
           Q42 33 37 28
           L36 18
           Q32 17 28 18 Z"
        fill="#ffffff"/>

  <!-- 眼睛 -->
  <circle cx="18" cy="31" r="2.2" fill="#ffffff"/>
  <circle cx="18" cy="31.5" r="1.2" fill="#111111"/>
  <circle cx="46" cy="31" r="2.2" fill="#ffffff"/>
  <circle cx="46" cy="31.5" r="1.2" fill="#111111"/>

  <!-- 鼻子 -->
  <ellipse cx="32" cy="39" rx="3" ry="2.3" fill="#111111"/>
</svg>
